<?xml version="1.0" encoding="UTF-8"?>
<svg version="1.1" xmlns="http://www.w3.org/2000/svg" width="210" height="76">
<path d="M0 0 C1.72974441 0.00015918 3.45949355 0.0058569 5.18920898 0.01586914 C6.09783188 0.01728409 7.00645477 0.01869904 7.94261169 0.02015686 C10.85687494 0.02577346 13.77106254 0.03832874 16.68530273 0.05102539 C18.65600475 0.05603825 20.62670797 0.06060153 22.59741211 0.06469727 C27.43923832 0.07574828 32.28100768 0.09302401 37.12280273 0.11352539 C37.14490131 3.26455568 37.15801733 6.41556556 37.16967773 9.56665039 C37.17596191 10.44724121 37.18224609 11.32783203 37.1887207 12.23510742 C37.22431811 25.10950278 37.05572924 37.77469172 28.06030273 47.73852539 C23.39006838 52.05874218 17.39413004 57.2042562 10.73217773 57.06274414 C2.03611901 54.58467146 -5.09680598 48.00659672 -9.72485352 40.42993164 C-13.11807849 33.60897432 -13.15837579 26.59599843 -12.87719727 19.11352539 C-11.55719727 18.78352539 -10.23719727 18.45352539 -8.87719727 18.11352539 C-7.65714217 22.12227786 -6.68240866 26.05054447 -5.93969727 30.17602539 C-4.07377306 39.51978221 0.36714237 43.60339512 7.74780273 49.05102539 C10.7575658 50.39749834 11.97856357 49.98459609 15.12280273 49.11352539 C21.39517765 45.96147189 25.34583714 42.55608557 28.12280273 36.11352539 C30.08061091 29.48824299 30.72258688 22.98550849 31.24780273 16.11352539 C31.53655273 12.48352539 31.82530273 8.85352539 32.12280273 5.11352539 C21.89280273 5.11352539 11.66280273 5.11352539 1.12280273 5.11352539 C1.24655273 8.41352539 1.37030273 11.71352539 1.49780273 15.11352539 C1.53180176 16.13704102 1.56580078 17.16055664 1.60083008 18.21508789 C1.87442586 27.57481906 1.87442586 27.57481906 5.45483398 36.02368164 C7.93020686 37.95042306 9.57256784 39.10042456 12.74780273 39.17602539 C16.40757159 37.53876037 18.44705288 35.50679872 20.19702148 31.89868164 C21.27764036 28.64770588 21.54076356 25.71717172 21.74780273 22.30102539 C21.82256836 21.13958008 21.89733398 19.97813477 21.97436523 18.78149414 C22.02334961 17.90106445 22.07233398 17.02063477 22.12280273 16.11352539 C20.99100586 16.14833008 19.85920898 16.18313477 18.69311523 16.21899414 C17.21135921 16.24712875 15.72958718 16.27442926 14.24780273 16.30102539 C13.12825195 16.33873047 13.12825195 16.33873047 11.98608398 16.37719727 C9.81811523 16.40649414 9.81811523 16.40649414 6.12280273 16.11352539 C5.46280273 15.12352539 4.80280273 14.13352539 4.12280273 13.11352539 C4.45280273 12.45352539 4.78280273 11.79352539 5.12280273 11.11352539 C8.7686196 11.08465027 12.41440737 11.06676954 16.06030273 11.05102539 C17.1012207 11.04264648 18.14213867 11.03426758 19.21459961 11.02563477 C20.20395508 11.02241211 21.19331055 11.01918945 22.21264648 11.01586914 C23.12908936 11.01063232 24.04553223 11.00539551 24.98974609 11 C27.12280273 11.11352539 27.12280273 11.11352539 28.12280273 12.11352539 C28.86820454 21.35304085 29.01967085 32.30577541 22.81030273 39.67602539 C20.14478283 42.31951621 17.66531352 44.75102124 14.12280273 46.11352539 C8.04073333 45.98411966 4.01607579 43.05938937 -0.12719727 38.80102539 C-5.70741436 30.23140628 -4.95882762 18.86647799 -5.00219727 8.98852539 C-5.00687012 8.22942871 -5.01154297 7.47033203 -5.01635742 6.68823242 C-4.99699823 0.14631347 -4.99699823 0.14631347 0 0 Z " fill="#4CAFE1" transform="translate(36.877197265625,7.886474609375)"/>
<path d="M0 0 C2.23046875 -0.3125 2.23046875 -0.3125 5 0 C7.23828125 2.1875 7.23828125 2.1875 9.3125 5 C10.00988281 5.928125 10.70726562 6.85625 11.42578125 7.8125 C11.94527344 8.534375 12.46476563 9.25625 13 10 C16.26008643 6.83047153 19.22237877 3.60062011 22 0 C24.475 0.495 24.475 0.495 27 1 C27 9.91 27 18.82 27 28 C25.35 28.33 23.7 28.66 22 29 C19.94077598 26.94077598 20.58572421 22.78291876 20.4375 19.9375 C20.39431641 19.17888672 20.35113281 18.42027344 20.30664062 17.63867188 C20.20026367 15.75934562 20.09960066 13.87969756 20 12 C19.4225 12.969375 18.845 13.93875 18.25 14.9375 C16 18 16 18 12 19 C10.02 16.69 8.04 14.38 6 12 C5.67 17.28 5.34 22.56 5 28 C3.68 28.33 2.36 28.66 1 29 C-1.24967291 25.62549063 -1.24707022 24.47491257 -1.23046875 20.52734375 C-1.22853516 19.46322266 -1.22660156 18.39910156 -1.22460938 17.30273438 C-1.21236328 16.19220703 -1.20011719 15.08167969 -1.1875 13.9375 C-1.18685547 12.82310547 -1.18621094 11.70871094 -1.18554688 10.56054688 C-1.14035676 2.28071352 -1.14035676 2.28071352 0 0 Z " fill="#4CAFE1" transform="translate(179,22)"/>
<path d="M0 0 C3.94096859 1.14717303 7.43957786 2.7069497 10 6 C10.3984375 8.33984375 10.3984375 8.33984375 10.375 10.9375 C10.38273437 11.79214844 10.39046875 12.64679687 10.3984375 13.52734375 C9.9319174 16.4225126 8.91238222 17.81947953 7 20 C7.680625 20.9075 8.36125 21.815 9.0625 22.75 C11 26 11 26 10.75 28.375 C10.5025 28.91125 10.255 29.4475 10 30 C7.8125 29.9375 7.8125 29.9375 5 29 C3.61868894 27.27017354 2.46780186 25.45001622 1.26953125 23.58984375 C0.01336916 21.72111977 0.01336916 21.72111977 -2.8125 21.0625 C-3.534375 21.041875 -4.25625 21.02125 -5 21 C-5 23.64 -5 26.28 -5 29 C-6.875 29.625 -6.875 29.625 -9 30 C-12.14874039 26.85125961 -11.29476873 23.38099849 -11.32226562 19.08398438 C-11.31904297 17.92189453 -11.31582031 16.75980469 -11.3125 15.5625 C-11.32861328 14.40427734 -11.34472656 13.24605469 -11.36132812 12.05273438 C-11.36197266 10.94349609 -11.36261719 9.83425781 -11.36328125 8.69140625 C-11.36626221 7.67248291 -11.36924316 6.65355957 -11.37231445 5.60375977 C-11 3 -11 3 -9.71166992 1.16772461 C-6.72871172 -0.86729024 -3.42863802 -0.47183092 0 0 Z M-5 6 C-5 9.3 -5 12.6 -5 16 C-0.57335436 16.30495485 -0.57335436 16.30495485 3.375 14.5 C3.91125 14.005 4.4475 13.51 5 13 C4.72965366 10.56282742 4.72965366 10.56282742 4 8 C0.5647952 5.70986347 -0.985331 5.82157027 -5 6 Z " fill="#1E417C" transform="translate(95,21)"/>
<path d="M0 0 C1.2065625 0.0309375 1.2065625 0.0309375 2.4375 0.0625 C4.11920573 3.78506299 5.78017004 7.51652832 7.4375 11.25 C7.91445312 12.30509766 8.39140625 13.36019531 8.8828125 14.44726562 C9.33398438 15.46884766 9.78515625 16.49042969 10.25 17.54296875 C10.87841797 18.94905396 10.87841797 18.94905396 11.51953125 20.38354492 C12.46016203 23.12863576 12.62006337 25.18484491 12.4375 28.0625 C11.1175 28.3925 9.7975 28.7225 8.4375 29.0625 C5.4375 24.3125 5.4375 24.3125 5.4375 22.0625 C1.68749436 22.07523347 -1.90295888 22.20428903 -5.5625 23.0625 C-7.8780324 25.93379568 -7.8780324 25.93379568 -8.5625 29.0625 C-10.2125 28.7325 -11.8625 28.4025 -13.5625 28.0625 C-12.98923972 21.97160952 -10.49611856 16.78403353 -8.0625 11.25 C-7.64613281 10.28384766 -7.22976562 9.31769531 -6.80078125 8.32226562 C-3.22058751 0.07855091 -3.22058751 0.07855091 0 0 Z M-0.5625 10.0625 C-2.0475 13.5275 -2.0475 13.5275 -3.5625 17.0625 C-1.5825 17.0625 0.3975 17.0625 2.4375 17.0625 C1.7775 14.7525 1.1175 12.4425 0.4375 10.0625 C0.1075 10.0625 -0.2225 10.0625 -0.5625 10.0625 Z " fill="#4CAFE1" transform="translate(162.5625,21.9375)"/>
<path d="M0 0 C1.9375 2.1875 1.9375 2.1875 1.9375 6.1875 C-1.77849191 6.38836443 -2.83458445 6.3394437 -6.0625 4.1875 C-9.91293147 3.8598037 -12.90557048 3.81980286 -16.0625 6.1875 C-17.78775262 9.14507592 -18.08082636 10.8820606 -17.875 14.3125 C-17.02053494 17.33599176 -16.66569541 18.48195818 -14.0625 20.1875 C-8.94589378 21.77933305 -6.66497874 20.58879325 -2.0625 18.1875 C0.3125 18.5 0.3125 18.5 1.9375 19.1875 C1.8125 21.5 1.8125 21.5 0.9375 24.1875 C-3.14752193 27.1491409 -6.96831426 27.71234632 -11.8828125 27.546875 C-16.44125164 26.79530439 -20.17119531 23.68750041 -23.0625 20.1875 C-24.51182983 15.83951052 -24.57919065 11.73154655 -24.0625 7.1875 C-22.05045727 3.23527321 -19.88965629 0.45987405 -16.0625 -1.8125 C-10.48668213 -3.58072977 -5.00338567 -2.96118744 0 0 Z " fill="#1E417C" transform="translate(133.0625,23.8125)"/>
<path d="M0 0 C2.4375 0.75 2.4375 0.75 4.4375 2.75 C6.80259361 3.05059943 9.18191881 3.24515012 11.5625 3.375 C13.48449219 3.48714844 13.48449219 3.48714844 15.4453125 3.6015625 C16.43273437 3.65054687 17.42015625 3.69953125 18.4375 3.75 C18.4375 5.07 18.4375 6.39 18.4375 7.75 C15.00191285 9.46779358 11.07850107 9.15446288 7.28515625 9.37109375 C4.24020409 9.56367373 4.24020409 9.56367373 1.4375 11.75 C-1.5625 12.1875 -1.5625 12.1875 -4.5625 11.75 C-6.5625 9.5625 -6.5625 9.5625 -7.5625 6.75 C-6.56276646 2.45114578 -4.85519205 -0.47367727 0 0 Z M-2.5625 4.75 C-2.2325 5.74 -1.9025 6.73 -1.5625 7.75 C-0.9025 7.09 -0.2425 6.43 0.4375 5.75 C-0.5525 5.42 -1.5425 5.09 -2.5625 4.75 Z " fill="#4CAFE1" transform="translate(10.5625,15.25)"/>
<path d="M0 0 C1.65 0 3.3 0 5 0 C7.11689593 4.23379186 6.18493005 9.84839782 6.1875 14.5 C6.19974609 15.66660156 6.21199219 16.83320312 6.22460938 18.03515625 C6.22654297 19.14761719 6.22847656 20.26007812 6.23046875 21.40625 C6.23457764 22.43041016 6.23868652 23.45457031 6.24291992 24.50976562 C6 27 6 27 4 29 C2.68 28.67 1.36 28.34 0 28 C0 18.76 0 9.52 0 0 Z " fill="#4CAFE1" transform="translate(140,22)"/>
</svg>
